# Blender v2.91.2 OBJ File: ''
# www.blender.org
mtllib elevator_frame_full.mtl
o ObjObject.003
v -2.400000 0.400000 2.000000
v -2.400000 0.000000 -2.400000
v -2.400000 -0.000000 2.400000
v -2.400000 0.400000 -2.000000
v -2.400000 2.600000 2.000000
v -2.400000 2.600000 -2.000000
v -2.400000 4.000000 2.400001
v -2.400000 4.000000 -2.399999
v -2.200000 -0.000000 2.200000
v -2.200000 0.000000 -2.200000
v -2.200000 0.400000 2.000000
v -2.200000 0.400000 -2.000000
v -2.200000 2.600000 2.000000
v -2.200000 2.600000 -2.000000
v -2.200000 4.000000 2.200001
v -2.200000 4.000000 -2.199999
v 2.400000 -0.000000 2.400000
v 2.400000 0.000000 -2.400000
v 2.400000 4.000000 2.400001
v 2.400000 4.000000 -2.399999
v 2.400000 -0.000000 2.400000
v -2.400000 4.000000 2.400001
v -2.400000 -0.000000 2.400000
v 2.400000 4.000000 2.400001
v -2.200000 0.400000 -2.000000
v -2.400000 2.600000 -2.000000
v -2.400000 0.400000 -2.000000
v -2.200000 2.600000 -2.000000
v -2.400000 0.400000 2.000000
v -2.400000 2.600000 2.000000
v -2.200000 0.400000 2.000000
v -2.200000 2.600000 2.000000
v -2.400000 0.000000 -2.400000
v -2.400000 4.000000 -2.399999
v 2.400000 0.000000 -2.400000
v 2.400000 4.000000 -2.399999
v -2.400000 2.600000 -2.000000
v -2.200000 2.600000 2.000000
v -2.400000 2.600000 2.000000
v -2.200000 2.600000 -2.000000
v -2.400000 0.400000 2.000000
v -2.200000 0.400000 2.000000
v -2.400000 0.400000 -2.000000
v -2.200000 0.400000 -2.000000
vt 0.306641 0.500000
vt 0.306641 0.500000
vt 0.306641 0.500000
vt 0.306641 0.500000
vt 0.306641 0.500000
vt 0.306641 0.500000
vt 0.306641 0.500000
vt 0.306641 0.500000
vt 0.306641 0.500000
vt 0.306641 0.500000
vt 0.306641 0.500000
vt 0.306641 0.500000
vt 0.306641 0.500000
vt 0.306641 0.500000
vt 0.306641 0.500000
vt 0.306641 0.500000
vt 0.306641 0.500000
vt 0.306641 0.500000
vt 0.306641 0.500000
vt 0.306641 0.500000
vt 0.306641 0.500000
vt 0.306641 0.500000
vt 0.306641 0.500000
vt 0.306641 0.500000
vt 0.306641 0.500000
vt 0.306641 0.500000
vt 0.306641 0.500000
vt 0.306641 0.500000
vt 0.306641 0.500000
vt 0.306641 0.500000
vt 0.306641 0.500000
vt 0.306641 0.500000
vt 0.306641 0.500000
vt 0.306641 0.500000
vt 0.306641 0.500000
vt 0.306641 0.500000
vt 0.306641 0.500000
vt 0.306641 0.500000
vt 0.306641 0.500000
vt 0.306641 0.500000
vt 0.306641 0.500000
vt 0.306641 0.500000
vt 0.306641 0.500000
vt 0.306641 0.500000
vn -1.0000 -0.0000 0.0000
vn 1.0000 0.0000 0.0000
vn 0.0000 -0.0000 1.0000
vn 0.0000 0.0000 -1.0000
vn 0.0000 -1.0000 -0.0000
vn 0.0000 1.0000 0.0000
usemtl palette.003
s 1
f 1/1/1 2/2/1 3/3/1
f 4/4/1 2/2/1 1/1/1
f 5/5/1 1/1/1 3/3/1
f 6/6/1 2/2/1 4/4/1
f 7/7/1 5/5/1 3/3/1
f 7/7/1 6/6/1 5/5/1
f 8/8/1 2/2/1 6/6/1
f 8/8/1 6/6/1 7/7/1
f 9/9/2 10/10/2 11/11/2
f 11/11/2 10/10/2 12/12/2
f 13/13/2 14/14/2 15/15/2
f 15/15/2 14/14/2 16/16/2
f 17/17/2 18/18/2 19/19/2
f 19/19/2 18/18/2 20/20/2
f 21/21/3 22/22/3 23/23/3
f 24/24/3 22/22/3 21/21/3
f 25/25/3 26/26/3 27/27/3
f 28/28/3 26/26/3 25/25/3
f 29/29/4 30/30/4 31/31/4
f 31/31/4 30/30/4 32/32/4
f 33/33/4 34/34/4 35/35/4
f 35/35/4 34/34/4 36/36/4
f 37/37/5 38/38/5 39/39/5
f 40/40/5 38/38/5 37/37/5
f 41/41/6 42/42/6 43/43/6
f 43/43/6 42/42/6 44/44/6
